<?xml version="1.0" encoding="UTF-8" standalone="no"?>
<!-- Created with Inkscape (http://www.inkscape.org/) -->

<svg
   width="1920"
   height="1920"
   viewBox="0 0 507.99999 508"
   version="1.1"
   id="svg1"
   xml:space="preserve"
   inkscape:version="1.3.2 (091e20e, 2023-11-25, custom)"
   sodipodi:docname="foto  de perfil.svg"
   inkscape:export-filename="Desktop\foto  de perfil.svg"
   inkscape:export-xdpi="96"
   inkscape:export-ydpi="96"
   xmlns:inkscape="http://www.inkscape.org/namespaces/inkscape"
   xmlns:sodipodi="http://sodipodi.sourceforge.net/DTD/sodipodi-0.dtd"
   xmlns="http://www.w3.org/2000/svg"
   xmlns:svg="http://www.w3.org/2000/svg"><sodipodi:namedview
     id="namedview1"
     pagecolor="#ffffff"
     bordercolor="#000000"
     borderopacity="0.25"
     inkscape:showpageshadow="2"
     inkscape:pageopacity="0.0"
     inkscape:pagecheckerboard="0"
     inkscape:deskcolor="#d1d1d1"
     inkscape:document-units="mm"
     inkscape:zoom="0.25"
     inkscape:cx="774"
     inkscape:cy="762"
     inkscape:window-width="1920"
     inkscape:window-height="1013"
     inkscape:window-x="-9"
     inkscape:window-y="-9"
     inkscape:window-maximized="1"
     inkscape:current-layer="layer1" /><defs
     id="defs1" /><g
     inkscape:label="Camada 1"
     inkscape:groupmode="layer"
     id="layer1"><path
       style="fill:#999999;stroke-width:0.264583"
       id="path9"
       sodipodi:type="arc"
       sodipodi:cx="254"
       sodipodi:cy="254"
       sodipodi:rx="254"
       sodipodi:ry="254"
       sodipodi:start="0"
       sodipodi:end="6.2418604"
       sodipodi:open="true"
       sodipodi:arc-type="arc"
       d="M 508,254 A 254,254 0 0 1 256.62408,507.98644 254,254 0 0 1 0.05421907,259.24789 254,254 0 0 1 246.12887,0.12198748 254,254 0 0 1 507.78315,243.50646" /><path
       id="path2"
       style="fill:#333333;stroke-width:0.536948"
       d="M -265.01121,250.65602 A 194.57222,194.57222 0 0 0 -424.14879,65.839392 253.90532,253.90532 0 0 0 -507.7566,259.34076 a 253.90532,253.90532 0 0 0 88.5486,187.4051 194.57222,194.57222 0 0 0 154.19679,-196.08984 z"
       transform="rotate(-90)" /><path
       style="fill:#999999;stroke-width:0.264583"
       id="path8"
       sodipodi:type="arc"
       sodipodi:cx="254"
       sodipodi:cy="269.40768"
       sodipodi:rx="53.507359"
       sodipodi:ry="26.192432"
       sodipodi:start="0"
       sodipodi:end="6.2418604"
       sodipodi:open="true"
       sodipodi:arc-type="arc"
       d="m 307.50736,269.40768 a 53.507359,26.192432 0 0 1 -52.95457,26.19104 53.507359,26.192432 0 0 1 -54.04873,-25.64987 53.507359,26.192432 0 0 1 51.83782,-26.72102 53.507359,26.192432 0 0 1 55.1198,25.09776" /><path
       style="fill:#333333;stroke-width:1.07015"
       d="m 252.18833,278.17545 c -0.36912,-0.14778 -1.05863,-0.59476 -1.53231,-0.99333 -1.22315,-1.02921 -11.3356,-6.00362 -15.6672,-7.70686 -17.67379,-6.9495 -37.62522,-11.27784 -61.55194,-13.35326 -13.10509,-1.13676 -30.84688,-1.47451 -44.28074,-0.84296 -6.09767,0.28666 -6.4422,0.27502 -7.64748,-0.25812 -0.83705,-0.37027 -1.53135,-0.96508 -2.06139,-1.76602 l -0.79921,-1.20771 -0.0827,-90.62755 c -0.0569,-62.242324 0.0102,-90.94817 0.21224,-91.651071 0.39911,-1.384628 1.26201,-2.41976 2.57591,-3.090066 1.00607,-0.513259 1.68794,-0.558388 8.43707,-0.558388 h 7.34252 l 0.10284,-3.185393 c 0.11759,-3.640822 0.58479,-4.771981 2.45005,-5.931809 1.01306,-0.629918 1.31302,-0.656009 9.1172,-0.792925 l 8.06968,-0.141571 0.14157,-8.352823 c 0.14966,-8.830282 0.15672,-8.87541 1.60372,-10.246039 1.64682,-1.559907 3.50758,-1.707707 9.8637,-0.783506 15.50318,2.254226 29.7514,6.697369 43.03826,13.421011 11.38083,5.759117 19.78429,11.793716 28.17622,20.233615 4.94026,4.968503 8.19187,8.955387 11.84667,14.525585 1.50272,2.29025 2.79591,4.164099 2.8738,4.164099 0.0779,0 1.37107,-1.873849 2.87379,-4.164099 3.6548,-5.570198 6.9064,-9.557082 11.84666,-14.525585 8.39193,-8.439899 16.79539,-14.474498 28.17622,-20.233615 13.28687,-6.723642 27.53508,-11.166785 43.03826,-13.421011 6.35614,-0.924201 8.21689,-0.776401 9.8637,0.783506 1.44701,1.370629 1.45406,1.415757 1.60372,10.246039 l 0.14157,8.352823 8.06969,0.141571 c 7.80418,0.136916 8.10412,0.163007 9.11718,0.792925 1.86527,1.159828 2.3325,2.290987 2.45007,5.931809 l 0.10284,3.185393 h 7.34252 c 6.74912,0 7.43099,0.04516 8.43706,0.558388 1.3139,0.670306 2.1768,1.705438 2.57591,3.090066 0.20261,0.702901 0.26909,29.408747 0.21224,91.651071 l -0.0827,90.62755 -0.79922,1.20771 c -0.52808,0.79797 -1.22446,1.39581 -2.0526,1.76212 -1.20624,0.5336 -1.52762,0.54191 -8.54461,0.2209 -8.12071,-0.37148 -29.55102,-0.19644 -36.31373,0.2966 -27.96151,2.03856 -49.55651,6.41527 -68.48902,13.88084 -4.45292,1.75591 -14.57219,6.72625 -15.80345,7.76227 -0.4707,0.39608 -1.2004,0.85115 -1.62151,1.01127 -0.94151,0.35795 -3.46457,0.35019 -4.37296,-0.0135 z m -39.96039,-27.21106 c -2.4937,-1.12868 -10.69313,-4.15218 -15.47958,-5.70802 -15.49624,-5.03708 -35.19259,-8.6352 -51.48456,-9.40518 -2.0245,-0.0956 -4.07805,-0.29492 -4.56347,-0.4428 -1.20126,-0.36594 -2.87777,-2.10454 -3.22109,-3.34042 -0.18398,-0.66231 -0.28251,-27.84892 -0.28353,-78.24318 l -9.6e-4,-77.228258 h -4.10562 -4.10561 v 84.095808 84.09575 l 3.18539,-0.14106 c 18.01863,-0.79793 39.79194,0.22327 57.40795,2.69249 8.20556,1.15016 22.20232,3.69782 22.62213,4.11762 0.0683,0.0683 0.38941,0.11494 0.71383,0.10385 0.39646,-0.0135 0.17208,-0.20911 -0.68426,-0.59669 z m 89.33269,-0.60034 c 22.28695,-4.65613 50.52363,-6.80554 75.10458,-5.71702 l 3.1854,0.14106 V 160.69234 76.596532 h -4.10562 -4.10563 l -9.6e-4,77.228258 c -9.6e-4,50.39426 -0.0996,77.58087 -0.28352,78.24318 -0.34305,1.23491 -2.01876,2.97356 -3.22109,3.34208 -0.48543,0.14879 -2.6664,0.35134 -4.84662,0.45013 -13.00684,0.58936 -29.8975,3.33785 -43.60455,7.09542 -6.97616,1.91243 -17.3749,5.52194 -22.36857,7.76435 -2.24076,1.00623 -2.29398,1.01069 4.2472,-0.3559 z M 248.00991,99.452216 C 241.30427,86.146946 231.121,74.677614 218.50675,66.223055 208.6999,59.650113 197.45811,54.507097 185.21883,50.994116 c -6.0548,-1.737865 -17.24296,-4.141122 -17.60292,-3.781153 -0.13106,0.131073 -0.18781,159.114487 -0.0569,159.204447 0.0404,0.0278 1.34742,0.20519 2.90472,0.39444 14.36747,1.74607 27.60555,5.69791 39.92366,11.91799 7.68392,3.88005 13.10212,7.3779 19.67867,12.70408 4.21738,3.41555 12.08785,11.41666 15.57787,15.83648 l 2.96821,3.75898 0.0711,-75.04945 0.0713,-75.04955 z M 263.4922,246.90919 c 3.52921,-4.4548 11.43776,-12.42081 15.69987,-15.81391 6.68065,-5.31855 12.01269,-8.7405 19.39552,-12.44747 12.2815,-6.16661 25.50504,-10.10088 39.78206,-11.83596 1.55732,-0.18925 2.86401,-0.36632 2.90378,-0.39347 0.0399,-0.0272 0.0737,-35.84194 0.0754,-79.58841 0.004,-69.087727 -0.0506,-79.550593 -0.40559,-79.626659 -0.80158,-0.171771 -11.72641,2.222015 -17.02771,3.731005 -15.23207,4.335762 -28.38645,10.873485 -39.67025,19.716134 -3.85155,3.018306 -10.68231,9.770152 -13.46343,13.307892 -3.81222,4.849353 -7.43183,10.480984 -9.95771,15.492844 l -0.74445,1.477114 v 75.09991 c 0,43.03405 0.106,74.98501 0.24821,74.83087 0.13653,-0.14795 1.56045,-1.9254 3.16433,-3.94989 z m -30.83874,1.3174 c -1.10166,-1.22206 -3.31308,-3.42876 -4.91426,-4.9038 -12.59001,-11.59807 -26.7776,-19.15615 -43.96748,-23.42255 -6.11046,-1.51656 -14.23955,-2.85108 -20.10339,-3.30029 -2.74434,-0.21024 -4.13039,-0.64446 -5.20005,-1.62905 -1.54559,-1.42268 -1.45389,3.33078 -1.45389,-75.36512 V 66.686412 h -4.67193 -4.6719 v 79.392578 79.39252 l 2.6191,0.19006 c 29.14614,2.11497 59.62,10.82587 81.19222,23.20864 1.47944,0.84922 2.79896,1.55175 2.93226,1.56116 0.1333,0.0102 -0.65902,-0.98272 -1.76068,-2.20478 z m 44.81059,0.56564 c 20.18587,-11.43712 46.22846,-19.3807 73.36405,-22.37772 2.80315,-0.30959 6.27525,-0.64842 7.71575,-0.75294 l 2.61909,-0.19006 V 146.07899 66.686412 h -4.67191 -4.67192 v 72.919368 c 0,78.6959 0.0917,73.94244 -1.45388,75.36512 -1.05243,0.96874 -2.44245,1.41377 -5.05848,1.61954 -3.90926,0.30747 -8.93891,0.98257 -13.02474,1.74819 -20.54694,3.85022 -36.64195,11.69574 -51.0815,24.89973 -2.95019,2.69775 -7.2291,7.21015 -6.83705,7.21015 0.0974,0 1.49281,-0.74532 3.10059,-1.65628 z"
       id="path1" /></g></svg>
